<svg xmlns="http://www.w3.org/2000/svg" viewBox="0 0 32 32"><defs><style>.cls-1{fill:#231f20;}</style></defs><g id="price_tag" data-name="price tag"><path class="cls-1" d="M23.23,11.44l-3.9-3.9a1,1,0,0,0-1.41,0,1,1,0,0,0,0,1.42l3.89,3.9a.65.65,0,0,1,.19.45V21a1,1,0,0,0,2,0V13.31A2.65,2.65,0,0,0,23.23,11.44Z"/><path class="cls-1" d="M23,24a1,1,0,0,0-1,1v2.35a.65.65,0,0,1-.65.65H10.65a.65.65,0,0,1-.65-.65v-14a.65.65,0,0,1,.19-.45L14,9a1,1,0,0,0,0-1.42,1,1,0,0,0-1.41,0L8.77,11.45A2.61,2.61,0,0,0,8,13.31v14A2.65,2.65,0,0,0,10.65,30h10.7A2.65,2.65,0,0,0,24,27.35V25A1,1,0,0,0,23,24Z"/><path class="cls-1" d="M18.36,17.23l-6,5a1,1,0,0,0-.13,1.41A1,1,0,0,0,13,24a1,1,0,0,0,.64-.23l6-5a1,1,0,1,0-1.28-1.54Z"/><path class="cls-1" d="M14,18a1,1,0,0,0-1-1h0a1,1,0,1,0,1,1Z"/><path class="cls-1" d="M19,22a1,1,0,1,0,1,1,1,1,0,0,0-1-1Z"/><path class="cls-1" d="M14,11a1,1,0,0,0,1,1h2a1,1,0,0,0,0-2V3a1,1,0,0,0-2,0v7A1,1,0,0,0,14,11Z"/></g></svg>